<?xml version="1.0" standalone="no"?>
<!DOCTYPE svg PUBLIC "-//W3C//DTD SVG 20010904//EN"
 "http://www.w3.org/TR/2001/REC-SVG-20010904/DTD/svg10.dtd">
<svg version="1.0" xmlns="http://www.w3.org/2000/svg"
 width="1320.000000pt" height="1000.000000pt" viewBox="0 0 1320.000000 1000.000000"
 preserveAspectRatio="xMidYMid meet">

<g transform="translate(0.000000,1000.000000) scale(0.100000,-0.100000)"
fill="#000000" stroke="none">
<path d="M0 5000 l0 -5000 6600 0 6600 0 0 5000 0 5000 -6600 0 -6600 0 0
-5000z m6818 697 c44 -36 44 -114 1 -149 -26 -22 -87 -23 -116 -3 -28 20 -46
75 -34 106 9 25 36 52 61 62 21 8 70 0 88 -16z m2950 0 c44 -36 44 -114 1
-149 -26 -22 -87 -23 -116 -3 -28 20 -46 75 -34 106 9 25 36 52 61 62 21 8 70
0 88 -16z m-4058 -7 c13 -8 15 -66 18 -400 l3 -391 26 -10 c15 -5 33 -7 40 -4
11 3 13 -3 11 -26 -3 -29 -8 -32 -107 -70 -58 -21 -112 -39 -122 -39 -25 0
-42 26 -37 58 l4 29 -33 -33 c-107 -107 -319 -41 -400 124 -36 74 -45 220 -18
305 39 126 155 217 277 217 66 0 88 -9 136 -53 l32 -31 0 87 c0 81 -2 88 -25
103 -14 9 -32 14 -40 10 -11 -4 -15 2 -15 23 0 25 5 30 43 40 24 6 75 24 113
40 79 35 74 34 94 21z m3670 -5 c9 -11 12 -113 14 -403 1 -423 1 -422 57 -422
24 0 29 -4 29 -25 0 -20 -7 -26 -42 -36 -24 -6 -70 -20 -103 -30 -76 -24 -102
-24 -115 0 -6 13 -10 155 -10 395 0 361 -1 376 -19 386 -11 5 -29 10 -40 10
-16 0 -21 6 -21 25 0 20 7 26 40 35 22 6 72 26 112 45 83 40 82 40 98 20z
m-6686 -125 c-7 -25 -18 -64 -24 -87 -10 -38 -14 -43 -40 -43 -28 0 -30 3 -30
36 0 64 -12 74 -90 74 l-70 0 0 -344 c0 -379 -3 -362 64 -373 30 -5 36 -10 36
-29 l0 -24 -195 0 -195 0 0 24 c0 19 6 24 36 29 67 11 64 -6 64 374 l0 344
-72 -3 -73 -3 -35 -52 c-28 -44 -39 -53 -63 -53 -19 0 -28 4 -24 13 2 6 12 46
22 87 l17 75 343 0 342 0 -13 -45z m2037 -220 c189 -505 188 -503 255 -516 27
-5 34 -11 34 -30 l0 -24 -205 0 -205 0 0 24 c0 19 6 25 38 30 70 12 71 14 32
126 l-34 100 -126 0 -126 0 -29 -91 c-35 -110 -31 -120 48 -133 50 -8 57 -12
57 -33 l0 -23 -170 0 -170 0 0 24 c0 20 6 25 43 30 83 13 86 17 211 391 63
187 119 353 125 368 10 27 14 28 67 25 l56 -3 99 -265z m2126 109 c7 -7 8
-104 5 -299 -5 -318 -6 -315 54 -326 27 -5 34 -11 34 -30 l0 -24 -175 0 -175
0 0 24 c0 18 7 26 27 31 53 13 53 12 53 246 0 206 -1 220 -20 239 -11 11 -31
20 -45 20 -20 0 -25 5 -25 25 0 19 7 26 28 31 49 11 95 26 146 50 57 26 77 29
93 13z m1692 2 c11 -7 13 -25 8 -83 l-6 -73 17 31 c56 100 137 144 227 124 50
-11 75 -41 75 -90 0 -70 -83 -105 -140 -60 -56 44 -127 14 -154 -67 -19 -54
-23 -351 -6 -383 6 -11 26 -22 45 -26 28 -5 35 -11 35 -30 l0 -24 -175 0 -175
0 0 24 c0 18 7 26 27 31 53 13 53 12 53 246 0 237 -3 249 -56 249 -21 0 -25 4
-22 26 3 22 11 29 58 43 30 10 77 30 105 44 54 29 63 31 84 18z m1258 -2 c7
-7 8 -104 5 -299 -5 -318 -6 -315 54 -326 27 -5 34 -11 34 -30 l0 -24 -175 0
-175 0 0 24 c0 18 7 26 27 31 53 13 53 12 53 246 0 206 -1 220 -20 239 -11 11
-31 20 -45 20 -20 0 -25 5 -25 25 0 19 7 26 28 31 49 11 95 26 146 50 57 26
77 29 93 13z m-6606 -27 c66 -40 73 -69 77 -307 4 -227 6 -235 59 -235 19 0
23 -5 23 -27 -1 -26 -7 -30 -83 -56 -154 -53 -157 -54 -173 -32 -10 13 -12 34
-8 70 l6 50 -20 -30 c-46 -70 -110 -105 -194 -105 -101 1 -181 60 -193 144
-20 128 87 223 309 278 l86 21 0 76 c0 95 -14 125 -59 129 -41 4 -88 -14 -102
-40 -6 -11 -17 -42 -25 -69 -8 -28 -24 -59 -35 -70 -24 -24 -91 -26 -113 -3
-61 60 0 162 125 210 56 21 78 24 174 21 94 -2 115 -5 146 -25z m4138 8 c44
-17 52 -18 65 -5 8 8 26 15 39 15 22 0 25 -5 31 -52 3 -29 6 -73 6 -97 0 -42
-1 -43 -27 -36 -16 3 -29 10 -31 15 -2 5 -17 27 -33 50 -61 83 -145 105 -200
51 -61 -62 -25 -118 123 -192 154 -77 208 -136 208 -224 0 -60 -23 -107 -71
-149 -72 -61 -160 -71 -272 -32 -58 21 -69 22 -81 10 -8 -8 -26 -14 -39 -14
-22 0 -25 5 -31 61 -11 107 -8 129 13 129 20 0 51 -24 51 -40 0 -20 56 -73
101 -95 67 -34 113 -33 150 4 62 62 27 121 -116 195 -152 78 -215 150 -215
246 1 63 61 141 130 169 43 17 145 13 199 -9z m726 -12 c64 -33 118 -89 147
-153 20 -43 23 -66 23 -160 0 -92 -4 -118 -22 -157 -30 -66 -96 -133 -161
-165 -119 -58 -280 -26 -372 74 -67 71 -84 121 -84 243 -1 100 1 109 32 172
37 76 93 128 169 159 71 28 200 22 268 -13z m2977 16 c99 -33 166 -125 176
-239 4 -58 2 -65 -21 -89 l-26 -26 -187 0 -187 0 7 -52 c12 -92 26 -129 66
-172 38 -41 39 -41 111 -41 l72 0 47 53 c32 36 54 53 66 50 34 -6 26 -36 -23
-86 -38 -40 -61 -54 -107 -67 -166 -48 -347 45 -402 207 -27 78 -24 206 5 281
29 75 102 148 173 176 65 25 167 27 230 5z m-7302 -18 c0 -18 -8 -27 -31 -35
l-31 -11 19 -32 c37 -62 68 -108 74 -108 9 0 77 105 81 126 2 13 -6 20 -34 27
-31 7 -38 14 -38 33 l0 24 145 0 145 0 0 -25 c0 -19 -7 -26 -27 -31 -53 -11
-61 -15 -88 -36 -14 -11 -52 -59 -84 -107 l-58 -86 86 -137 c104 -165 122
-187 161 -195 23 -4 30 -11 30 -29 l0 -24 -170 0 -170 0 0 25 c0 18 5 25 20
25 36 0 33 28 -10 100 -23 39 -45 72 -49 74 -10 7 -102 -136 -99 -153 2 -10
16 -17 36 -19 26 -3 32 -7 32 -28 l0 -24 -145 0 -145 0 0 24 c0 20 6 25 38 31
21 3 52 14 69 25 29 17 163 198 163 219 0 16 -148 251 -177 282 -14 15 -38 29
-54 33 -23 4 -29 11 -29 31 l0 25 170 0 170 0 0 -24z m2440 -1 c0 -19 -7 -26
-32 -33 -27 -7 -34 -14 -36 -38 -2 -24 51 -191 126 -393 7 -19 19 11 65 160
76 246 76 257 -15 273 -32 6 -38 11 -38 31 l0 25 150 0 150 0 0 -24 c0 -19 -8
-27 -42 -38 -22 -7 -50 -24 -60 -38 -10 -14 -58 -149 -106 -300 l-89 -275 -59
-3 -59 -3 -105 287 c-58 158 -113 297 -122 309 -10 12 -31 25 -48 28 -24 5
-30 12 -30 32 l0 25 175 0 175 0 0 -25z m4070 0 c0 -19 -7 -26 -32 -33 -25 -6
-34 -14 -36 -34 -4 -31 128 -412 139 -401 4 4 32 91 63 193 69 223 69 223 -26
244 -21 5 -28 12 -28 31 l0 25 145 0 145 0 0 -25 c0 -20 -7 -26 -39 -35 -22
-6 -48 -21 -58 -33 -10 -13 -58 -150 -108 -305 l-90 -282 -60 0 -60 0 -100
277 c-55 153 -109 291 -120 307 -12 17 -34 33 -52 38 -26 7 -33 14 -33 33 l0
25 175 0 175 0 0 -25z m-1221 -501 c26 -21 31 -33 31 -68 0 -56 -34 -91 -90
-91 -121 0 -114 181 7 184 12 1 35 -11 52 -25z m-5071 -445 c30 -10 62 -58 62
-94 0 -34 -30 -73 -64 -85 -68 -22 -126 19 -126 89 0 46 22 78 63 90 18 5 32
10 33 10 1 1 15 -4 32 -10z m1097 -3 c39 -17 55 -42 55 -88 0 -44 -22 -74 -66
-88 -45 -15 -89 1 -109 41 -32 62 -8 118 60 141 11 3 21 6 23 7 1 1 18 -5 37
-13z m1186 4 c31 -17 22 -30 -18 -27 -29 1 -38 -2 -41 -16 -2 -12 7 -22 32
-32 64 -27 72 -82 15 -105 -22 -10 -36 -10 -54 -2 -38 18 -31 34 11 26 26 -5
39 -3 45 7 14 23 11 28 -31 45 -59 24 -69 83 -18 104 31 12 36 12 59 0z m544
-4 c39 -17 55 -42 55 -88 0 -44 -22 -74 -66 -88 -45 -15 -89 1 -109 41 -32 62
-8 118 60 141 11 3 21 6 23 7 1 1 18 -5 37 -13z m346 4 c5 0 9 -7 9 -16 0 -12
-7 -14 -31 -9 -22 5 -34 3 -40 -6 -14 -22 -11 -25 31 -44 61 -27 68 -85 14
-105 -30 -12 -75 -1 -82 18 -3 9 9 12 39 10 35 -2 44 1 47 15 2 12 -7 22 -32
32 -40 17 -60 46 -51 75 6 20 51 41 73 34 8 -2 18 -4 23 -4z m1877 -27 c31
-34 31 -101 -2 -132 -13 -12 -39 -24 -58 -27 -29 -5 -41 -1 -69 24 -28 25 -34
37 -34 70 0 90 103 131 163 65z m1911 26 c51 -18 77 -91 50 -141 -14 -27 -74
-51 -109 -43 -39 8 -61 36 -67 84 -7 51 15 87 60 100 17 5 32 10 33 10 1 1 15
-4 33 -10z m-6799 -51 c0 -74 9 -97 36 -104 41 -10 54 11 54 87 0 55 3 69 15
69 12 0 15 -14 15 -70 0 -62 -3 -74 -25 -95 -30 -30 -54 -31 -89 -4 -24 19
-26 26 -26 95 0 43 4 74 10 74 6 0 10 -24 10 -52z m318 40 c19 -19 15 -66 -8
-78 -20 -10 -19 -11 5 -50 22 -35 23 -40 8 -40 -10 0 -28 17 -41 40 -29 51
-42 51 -42 0 0 -29 -4 -40 -15 -40 -12 0 -15 17 -15 90 l0 90 48 0 c26 0 53
-5 60 -12z m279 -55 l29 -67 26 64 c19 48 31 66 47 68 20 3 21 -1 21 -87 0
-74 -3 -91 -15 -91 -12 0 -15 14 -15 63 l-1 62 -26 -62 c-14 -35 -30 -63 -37
-63 -6 0 -23 30 -38 68 l-27 67 0 -67 c-1 -54 -4 -68 -16 -68 -12 0 -15 17
-15 90 0 81 2 90 19 90 13 0 26 -19 48 -67z m603 57 c0 -5 -13 -10 -30 -10
l-30 0 0 -80 c0 -64 -3 -80 -15 -80 -12 0 -15 16 -15 80 l0 80 -30 0 c-16 0
-30 5 -30 10 0 6 32 10 75 10 43 0 75 -4 75 -10z m100 -80 c0 -73 -3 -90 -15
-90 -12 0 -15 17 -15 90 0 73 3 90 15 90 12 0 15 -17 15 -90z m118 20 c13 -36
24 -66 26 -68 2 -1 14 27 27 64 21 59 41 85 54 72 9 -9 -63 -173 -77 -176 -10
-2 -25 24 -46 78 -35 90 -38 104 -19 98 6 -3 22 -33 35 -68z m302 61 c0 -6
-21 -11 -47 -13 -44 -3 -48 -5 -48 -28 0 -22 5 -25 43 -28 57 -4 54 -22 -4
-22 -44 0 -45 -1 -42 -27 3 -26 7 -28 51 -31 68 -4 58 -22 -13 -22 l-60 0 0
90 0 90 60 0 c33 0 60 -4 60 -9z m230 -81 c0 -73 -3 -90 -15 -90 -12 0 -15 17
-15 90 0 73 3 90 15 90 12 0 15 -17 15 -90z m520 80 c0 -5 -13 -10 -30 -10
l-30 0 0 -80 c0 -64 -3 -80 -15 -80 -12 0 -15 16 -15 80 0 79 0 80 -25 80 -14
0 -25 5 -25 10 0 6 30 10 70 10 40 0 70 -4 70 -10z m670 -80 c0 -73 -3 -90
-15 -90 -12 0 -15 17 -15 90 0 73 3 90 15 90 12 0 15 -17 15 -90z m156 23 l30
-68 26 65 c19 48 31 66 47 68 20 3 21 -1 21 -87 0 -74 -3 -91 -15 -91 -12 0
-15 14 -15 63 l-1 62 -26 -62 c-14 -35 -30 -63 -37 -63 -6 0 -23 30 -38 68
l-27 67 0 -67 c-1 -54 -4 -68 -16 -68 -12 0 -15 17 -15 90 0 80 2 90 18 90 13
0 27 -20 48 -67z m330 42 c15 -23 15 -27 0 -50 -12 -19 -25 -25 -51 -25 -34 0
-35 -1 -35 -40 0 -29 -4 -40 -15 -40 -12 0 -15 17 -15 90 l0 90 50 0 c42 0 52
-4 66 -25z m114 -55 l0 -80 40 0 c22 0 40 -4 40 -10 0 -5 -25 -10 -55 -10
l-55 0 0 90 c0 73 3 90 15 90 12 0 15 -16 15 -80z m180 -10 c0 -73 -3 -90 -15
-90 -12 0 -15 17 -15 90 0 73 3 90 15 90 12 0 15 -17 15 -90z m210 80 c0 -5
-20 -10 -45 -10 -43 0 -45 -1 -45 -30 0 -28 2 -30 40 -30 22 0 40 -4 40 -10 0
-5 -18 -10 -40 -10 l-40 0 0 -40 c0 -29 -4 -40 -15 -40 -12 0 -15 17 -15 90
l0 90 60 0 c33 0 60 -4 60 -10z m106 -25 c10 -19 22 -35 25 -35 4 0 16 16 28
35 11 19 27 35 36 35 21 0 19 -5 -15 -55 -21 -31 -30 -55 -30 -84 0 -30 -4
-41 -15 -41 -11 0 -15 11 -15 38 0 26 -10 53 -35 90 -31 45 -33 52 -17 52 11
0 27 -14 38 -35z m324 0 c12 -19 23 -35 25 -35 2 0 13 16 25 35 13 21 30 35
41 35 17 0 16 -6 -16 -52 -25 -37 -35 -64 -35 -90 0 -27 -4 -38 -15 -38 -11 0
-15 11 -15 41 0 29 -9 53 -30 84 -34 49 -36 55 -16 55 8 0 24 -16 36 -35z
m460 -33 c0 -73 10 -92 47 -92 31 0 43 28 43 99 0 48 3 61 15 61 16 0 21 -68
9 -130 -13 -65 -111 -76 -134 -15 -6 15 -10 53 -10 86 0 46 3 59 15 59 12 0
15 -14 15 -68z m314 52 c22 -21 20 -51 -4 -66 -25 -16 -25 -26 0 -58 23 -30
25 -40 6 -40 -8 0 -25 18 -37 40 -13 22 -29 40 -36 40 -9 0 -13 -14 -13 -40 0
-29 -4 -40 -15 -40 -12 0 -15 17 -15 90 l0 90 49 0 c32 0 55 -6 65 -16z m336
6 c0 -5 -13 -10 -30 -10 l-30 0 0 -80 c0 -64 -3 -80 -15 -80 -12 0 -15 16 -15
80 0 79 0 80 -25 80 -14 0 -25 5 -25 10 0 6 30 10 70 10 40 0 70 -4 70 -10z
m167 -78 c34 -79 37 -122 6 -74 -21 31 -98 32 -108 2 -6 -19 -35 -29 -35 -12
0 4 16 44 37 90 23 53 41 82 50 80 8 -2 30 -40 50 -86z m147 56 l19 -31 26 32
c14 17 32 31 39 31 17 0 16 -5 -14 -50 l-26 -39 32 -45 c29 -43 30 -46 10 -46
-11 0 -20 3 -20 8 0 4 -11 20 -23 36 l-23 29 -22 -37 c-12 -20 -28 -36 -37
-36 -21 0 -19 9 14 55 l29 40 -30 42 c-25 38 -27 43 -11 43 10 0 27 -14 37
-32z m260 23 c3 -5 21 -45 41 -90 27 -65 31 -81 19 -81 -9 0 -18 9 -21 20 -4
16 -14 20 -49 20 -33 0 -46 -5 -54 -20 -10 -19 -46 -30 -38 -12 68 166 84 192
102 163z m246 -1 c0 -5 -13 -10 -30 -10 l-30 0 0 -80 c0 -64 -3 -80 -15 -80
-12 0 -15 16 -15 80 l0 80 -30 0 c-16 0 -30 5 -30 10 0 6 32 10 75 10 43 0 75
-4 75 -10z m100 -80 c0 -73 -3 -90 -15 -90 -12 0 -15 17 -15 90 0 73 3 90 15
90 12 0 15 -17 15 -90z m431 23 l44 -67 3 67 c2 51 6 67 17 67 12 0 15 -18 15
-90 0 -79 -2 -90 -17 -90 -11 0 -36 28 -63 68 l-45 67 -3 -67 c-2 -52 -6 -68
-17 -68 -12 0 -15 18 -15 90 0 81 2 90 19 90 12 0 34 -24 62 -67z"/>
<path d="M5338 5370 c-101 -79 -84 -444 24 -535 54 -45 122 -24 157 48 19 39
21 61 21 234 l0 190 -45 42 c-38 35 -51 41 -88 41 -29 0 -53 -7 -69 -20z"/>
<path d="M4505 5379 c-17 -46 -85 -254 -85 -261 0 -4 45 -8 101 -8 92 0 101 2
94 18 -4 9 -27 71 -52 137 -24 66 -46 122 -48 124 -3 2 -7 -2 -10 -10z"/>
<path d="M3000 5113 c-69 -37 -111 -88 -117 -147 -13 -112 50 -168 133 -117
50 31 74 95 74 201 0 105 -4 108 -90 63z"/>
<path d="M7874 5390 c-64 -26 -89 -115 -81 -292 6 -139 24 -202 73 -255 25
-26 39 -33 68 -33 77 0 112 83 109 262 -2 173 -42 286 -109 314 -18 8 -35 14
-36 13 -2 0 -13 -4 -24 -9z"/>
<path d="M10895 5386 c-17 -7 -36 -20 -42 -28 -20 -24 -41 -93 -49 -158 l-7
-60 121 0 c67 0 123 4 126 9 10 15 -13 159 -29 192 -9 17 -31 37 -50 45 -40
16 -33 16 -70 0z"/>
<path d="M3876 4428 c-24 -33 -20 -84 6 -102 12 -9 33 -16 45 -16 30 0 63 37
63 71 0 59 -82 93 -114 47z"/>
<path d="M4970 4428 c-42 -45 -12 -118 49 -118 36 0 61 31 61 77 0 58 -70 84
-110 41z"/>
<path d="M6700 4428 c-42 -45 -12 -118 49 -118 36 0 61 31 61 77 0 58 -70 84
-110 41z"/>
<path d="M8891 4424 c-27 -35 -27 -65 2 -92 46 -44 107 -17 109 49 2 63 -73
92 -111 43z"/>
<path d="M10840 4430 c-28 -28 -27 -84 2 -104 48 -34 108 -4 108 54 0 59 -69
91 -110 50z"/>
<path d="M4360 4419 c0 -27 3 -30 27 -27 49 5 40 57 -9 58 -13 0 -18 -8 -18
-31z"/>
<path d="M7660 4420 c0 -25 4 -30 24 -30 33 0 53 25 36 45 -7 8 -23 15 -36 15
-20 0 -24 -5 -24 -30z"/>
<path d="M9370 4420 c0 -27 3 -30 29 -30 21 0 32 6 36 21 8 24 -8 39 -42 39
-19 0 -23 -6 -23 -30z"/>
<path d="M9897 4413 c-2 -10 -8 -26 -12 -35 -6 -15 -2 -18 24 -18 30 0 30 1
19 28 -17 39 -25 46 -31 25z"/>
<path d="M10331 4390 c-10 -29 -9 -30 19 -30 28 0 29 1 19 30 -6 17 -15 30
-19 30 -4 0 -13 -13 -19 -30z"/>
</g>
</svg>
